<svg width="20" height="20" viewBox="0 0 20 20" fill="none" xmlns="http://www.w3.org/2000/svg">
<path d="M11.0833 19.75C10.7764 19.75 10.5191 19.6462 10.3115 19.4385C10.1038 19.2309 10 18.9736 10 18.6667C10 18.3597 10.1038 18.1024 10.3115 17.8948C10.5191 17.6872 10.7764 17.5833 11.0833 17.5833H17.5833V2.41667H11.0833C10.7764 2.41667 10.5191 2.31285 10.3115 2.10521C10.1038 1.89757 10 1.64028 10 1.33333C10 1.02639 10.1038 0.769097 10.3115 0.561458C10.5191 0.353819 10.7764 0.25 11.0833 0.25H17.5833C18.1792 0.25 18.6892 0.462153 19.1135 0.886458C19.5378 1.31076 19.75 1.82083 19.75 2.41667V17.5833C19.75 18.1792 19.5378 18.6892 19.1135 19.1135C18.6892 19.5378 18.1792 19.75 17.5833 19.75H11.0833ZM9.10625 11.0833H1.33333C1.02639 11.0833 0.769097 10.9795 0.561458 10.7719C0.353819 10.5642 0.25 10.3069 0.25 10C0.25 9.69306 0.353819 9.43576 0.561458 9.22813C0.769097 9.02049 1.02639 8.91667 1.33333 8.91667H9.10625L7.075 6.88542C6.87639 6.68681 6.77708 6.44306 6.77708 6.15417C6.77708 5.86528 6.87639 5.6125 7.075 5.39583C7.27361 5.17917 7.52639 5.06632 7.83333 5.05729C8.14028 5.04826 8.40208 5.15208 8.61875 5.36875L12.4917 9.24167C12.7083 9.45833 12.8167 9.71111 12.8167 10C12.8167 10.2889 12.7083 10.5417 12.4917 10.7583L8.61875 14.6313C8.40208 14.8479 8.14479 14.9517 7.84688 14.9427C7.54896 14.9337 7.29167 14.8208 7.075 14.6042C6.87639 14.3875 6.7816 14.1302 6.79063 13.8323C6.79965 13.5344 6.90347 13.2861 7.10208 13.0875L9.10625 11.0833Z" fill="#CDCDCD"/>
</svg>
